<mxfile host="app.diagrams.net" modified="2021-03-01T16:08:57.294Z" agent="5.0 (Windows NT 10.0; Win64; x64) AppleWebKit/537.36 (KHTML, like Gecko) Chrome/88.0.4324.190 Safari/537.36" etag="ysLYps6utVjAWLbfNjyT" version="14.4.3" type="github">
  <diagram id="kgpKYQtTHZ0yAKxKKP6v" name="Page-1">
    <mxGraphModel dx="1038" dy="548" grid="1" gridSize="10" guides="1" tooltips="1" connect="1" arrows="1" fold="1" page="1" pageScale="1" pageWidth="850" pageHeight="1100" math="0" shadow="0">
      <root>
        <mxCell id="0" />
        <mxCell id="1" parent="0" />
        <mxCell id="3nuBFxr9cyL0pnOWT2aG-8" value="View Request()" style="verticalAlign=bottom;endArrow=block;entryX=0;entryY=0;shadow=0;strokeWidth=1;exitX=1.04;exitY=0.005;exitDx=0;exitDy=0;exitPerimeter=0;" parent="1" source="HCJzrl4x2OYuLPzcvMn--10" edge="1">
          <mxGeometry relative="1" as="geometry">
            <mxPoint x="170" y="200" as="sourcePoint" />
            <mxPoint x="350" y="200.0000000000001" as="targetPoint" />
            <Array as="points" />
          </mxGeometry>
        </mxCell>
        <mxCell id="HCJzrl4x2OYuLPzcvMn--5" value="Supplier&lt;br&gt;" style="shape=umlActor;verticalLabelPosition=bottom;verticalAlign=top;html=1;outlineConnect=0;" vertex="1" parent="1">
          <mxGeometry x="140" y="60" width="30" height="60" as="geometry" />
        </mxCell>
        <mxCell id="HCJzrl4x2OYuLPzcvMn--8" value="" style="endArrow=none;dashed=1;html=1;" edge="1" parent="1" source="HCJzrl4x2OYuLPzcvMn--10">
          <mxGeometry width="50" height="50" relative="1" as="geometry">
            <mxPoint x="154.5" y="360" as="sourcePoint" />
            <mxPoint x="154.5" y="150" as="targetPoint" />
          </mxGeometry>
        </mxCell>
        <mxCell id="HCJzrl4x2OYuLPzcvMn--12" value="Request" style="ellipse;whiteSpace=wrap;html=1;aspect=fixed;rounded=0;shadow=0;strokeWidth=1;" vertex="1" parent="1">
          <mxGeometry x="320" y="60" width="80" height="80" as="geometry" />
        </mxCell>
        <mxCell id="HCJzrl4x2OYuLPzcvMn--13" value="" style="endArrow=none;dashed=1;html=1;" edge="1" parent="1" source="HCJzrl4x2OYuLPzcvMn--14">
          <mxGeometry width="50" height="50" relative="1" as="geometry">
            <mxPoint x="360" y="340" as="sourcePoint" />
            <mxPoint x="360" y="150" as="targetPoint" />
            <Array as="points">
              <mxPoint x="360" y="160" />
            </Array>
          </mxGeometry>
        </mxCell>
        <mxCell id="HCJzrl4x2OYuLPzcvMn--14" value="" style="points=[];perimeter=orthogonalPerimeter;rounded=0;shadow=0;strokeWidth=1;" vertex="1" parent="1">
          <mxGeometry x="350" y="200" width="20" height="50" as="geometry" />
        </mxCell>
        <mxCell id="HCJzrl4x2OYuLPzcvMn--15" value="" style="endArrow=none;dashed=1;html=1;" edge="1" parent="1" source="HCJzrl4x2OYuLPzcvMn--27" target="HCJzrl4x2OYuLPzcvMn--14">
          <mxGeometry width="50" height="50" relative="1" as="geometry">
            <mxPoint x="360" y="370" as="sourcePoint" />
            <mxPoint x="360" y="150" as="targetPoint" />
          </mxGeometry>
        </mxCell>
        <mxCell id="HCJzrl4x2OYuLPzcvMn--23" value="" style="points=[];perimeter=orthogonalPerimeter;rounded=0;shadow=0;strokeWidth=1;" vertex="1" parent="1">
          <mxGeometry x="160" y="240" width="20" height="20" as="geometry" />
        </mxCell>
        <mxCell id="HCJzrl4x2OYuLPzcvMn--3" style="edgeStyle=orthogonalEdgeStyle;rounded=0;orthogonalLoop=1;jettySize=auto;html=1;" edge="1" parent="1" source="HCJzrl4x2OYuLPzcvMn--10">
          <mxGeometry relative="1" as="geometry">
            <mxPoint x="320" y="270" as="sourcePoint" />
            <mxPoint x="160" y="230" as="targetPoint" />
            <Array as="points" />
          </mxGeometry>
        </mxCell>
        <mxCell id="HCJzrl4x2OYuLPzcvMn--26" value="List Request()" style="edgeStyle=orthogonalEdgeStyle;rounded=0;orthogonalLoop=1;jettySize=auto;html=1;" edge="1" parent="1" source="HCJzrl4x2OYuLPzcvMn--14" target="HCJzrl4x2OYuLPzcvMn--10">
          <mxGeometry relative="1" as="geometry">
            <mxPoint x="350" y="240" as="sourcePoint" />
            <mxPoint x="160" y="230" as="targetPoint" />
            <Array as="points">
              <mxPoint x="270" y="240" />
              <mxPoint x="270" y="240" />
            </Array>
          </mxGeometry>
        </mxCell>
        <mxCell id="HCJzrl4x2OYuLPzcvMn--27" value="" style="points=[];perimeter=orthogonalPerimeter;rounded=0;shadow=0;strokeWidth=1;" vertex="1" parent="1">
          <mxGeometry x="350" y="280" width="20" height="60" as="geometry" />
        </mxCell>
        <mxCell id="HCJzrl4x2OYuLPzcvMn--28" value="" style="endArrow=none;dashed=1;html=1;" edge="1" parent="1" target="HCJzrl4x2OYuLPzcvMn--27">
          <mxGeometry width="50" height="50" relative="1" as="geometry">
            <mxPoint x="360" y="400" as="sourcePoint" />
            <mxPoint x="360" y="250" as="targetPoint" />
          </mxGeometry>
        </mxCell>
        <mxCell id="HCJzrl4x2OYuLPzcvMn--29" value="View Detail()" style="endArrow=classic;html=1;" edge="1" parent="1" target="HCJzrl4x2OYuLPzcvMn--27">
          <mxGeometry width="50" height="50" relative="1" as="geometry">
            <mxPoint x="165" y="300" as="sourcePoint" />
            <mxPoint x="215" y="250" as="targetPoint" />
          </mxGeometry>
        </mxCell>
        <mxCell id="HCJzrl4x2OYuLPzcvMn--10" value="" style="points=[];perimeter=orthogonalPerimeter;rounded=0;shadow=0;strokeWidth=1;" vertex="1" parent="1">
          <mxGeometry x="145" y="200" width="20" height="170" as="geometry" />
        </mxCell>
        <mxCell id="HCJzrl4x2OYuLPzcvMn--30" value="" style="endArrow=none;dashed=1;html=1;" edge="1" parent="1" target="HCJzrl4x2OYuLPzcvMn--10">
          <mxGeometry width="50" height="50" relative="1" as="geometry">
            <mxPoint x="155" y="400" as="sourcePoint" />
            <mxPoint x="154.5" y="150" as="targetPoint" />
          </mxGeometry>
        </mxCell>
        <mxCell id="HCJzrl4x2OYuLPzcvMn--31" value="" style="points=[];perimeter=orthogonalPerimeter;rounded=0;shadow=0;strokeWidth=1;" vertex="1" parent="1">
          <mxGeometry x="160" y="340" width="20" height="20" as="geometry" />
        </mxCell>
        <mxCell id="HCJzrl4x2OYuLPzcvMn--33" value="Return request detail()" style="endArrow=classic;html=1;" edge="1" parent="1">
          <mxGeometry width="50" height="50" relative="1" as="geometry">
            <mxPoint x="355" y="337" as="sourcePoint" />
            <mxPoint x="164" y="337" as="targetPoint" />
          </mxGeometry>
        </mxCell>
        <mxCell id="HCJzrl4x2OYuLPzcvMn--68" value="sendFeedbackToCoordinator()" style="verticalAlign=bottom;endArrow=block;entryX=0;entryY=0;shadow=0;strokeWidth=1;exitX=1.04;exitY=0.005;exitDx=0;exitDy=0;exitPerimeter=0;" edge="1" source="HCJzrl4x2OYuLPzcvMn--81" parent="1">
          <mxGeometry relative="1" as="geometry">
            <mxPoint x="550" y="230" as="sourcePoint" />
            <mxPoint x="730" y="230.0000000000001" as="targetPoint" />
            <Array as="points" />
          </mxGeometry>
        </mxCell>
        <mxCell id="HCJzrl4x2OYuLPzcvMn--69" value="Supplier&lt;br&gt;" style="shape=umlActor;verticalLabelPosition=bottom;verticalAlign=top;html=1;outlineConnect=0;" vertex="1" parent="1">
          <mxGeometry x="520" y="90" width="30" height="60" as="geometry" />
        </mxCell>
        <mxCell id="HCJzrl4x2OYuLPzcvMn--70" value="" style="endArrow=none;dashed=1;html=1;" edge="1" source="HCJzrl4x2OYuLPzcvMn--81" parent="1">
          <mxGeometry width="50" height="50" relative="1" as="geometry">
            <mxPoint x="534.5" y="390" as="sourcePoint" />
            <mxPoint x="534.5" y="180" as="targetPoint" />
          </mxGeometry>
        </mxCell>
        <mxCell id="HCJzrl4x2OYuLPzcvMn--72" value="" style="endArrow=none;dashed=1;html=1;" edge="1" source="HCJzrl4x2OYuLPzcvMn--73" parent="1">
          <mxGeometry width="50" height="50" relative="1" as="geometry">
            <mxPoint x="740" y="370" as="sourcePoint" />
            <mxPoint x="740" y="180" as="targetPoint" />
            <Array as="points">
              <mxPoint x="740" y="190" />
            </Array>
          </mxGeometry>
        </mxCell>
        <mxCell id="HCJzrl4x2OYuLPzcvMn--73" value="" style="points=[];perimeter=orthogonalPerimeter;rounded=0;shadow=0;strokeWidth=1;" vertex="1" parent="1">
          <mxGeometry x="730" y="230" width="20" height="50" as="geometry" />
        </mxCell>
        <mxCell id="HCJzrl4x2OYuLPzcvMn--74" value="" style="endArrow=none;dashed=1;html=1;" edge="1" target="HCJzrl4x2OYuLPzcvMn--73" parent="1">
          <mxGeometry width="50" height="50" relative="1" as="geometry">
            <mxPoint x="740" y="330" as="sourcePoint" />
            <mxPoint x="740" y="180" as="targetPoint" />
          </mxGeometry>
        </mxCell>
        <mxCell id="HCJzrl4x2OYuLPzcvMn--75" value="" style="points=[];perimeter=orthogonalPerimeter;rounded=0;shadow=0;strokeWidth=1;" vertex="1" parent="1">
          <mxGeometry x="540" y="270" width="20" height="20" as="geometry" />
        </mxCell>
        <mxCell id="HCJzrl4x2OYuLPzcvMn--76" style="edgeStyle=orthogonalEdgeStyle;rounded=0;orthogonalLoop=1;jettySize=auto;html=1;" edge="1" source="HCJzrl4x2OYuLPzcvMn--81" parent="1">
          <mxGeometry relative="1" as="geometry">
            <mxPoint x="700" y="300" as="sourcePoint" />
            <mxPoint x="540" y="260" as="targetPoint" />
            <Array as="points" />
          </mxGeometry>
        </mxCell>
        <mxCell id="HCJzrl4x2OYuLPzcvMn--77" value="return true&amp;nbsp;" style="edgeStyle=orthogonalEdgeStyle;rounded=0;orthogonalLoop=1;jettySize=auto;html=1;" edge="1" source="HCJzrl4x2OYuLPzcvMn--73" target="HCJzrl4x2OYuLPzcvMn--81" parent="1">
          <mxGeometry relative="1" as="geometry">
            <mxPoint x="730" y="270" as="sourcePoint" />
            <mxPoint x="540" y="260" as="targetPoint" />
            <Array as="points">
              <mxPoint x="650" y="270" />
              <mxPoint x="650" y="270" />
            </Array>
          </mxGeometry>
        </mxCell>
        <mxCell id="HCJzrl4x2OYuLPzcvMn--81" value="" style="points=[];perimeter=orthogonalPerimeter;rounded=0;shadow=0;strokeWidth=1;" vertex="1" parent="1">
          <mxGeometry x="525" y="230" width="20" height="70" as="geometry" />
        </mxCell>
        <mxCell id="HCJzrl4x2OYuLPzcvMn--82" value="" style="endArrow=none;dashed=1;html=1;" edge="1" target="HCJzrl4x2OYuLPzcvMn--81" parent="1">
          <mxGeometry width="50" height="50" relative="1" as="geometry">
            <mxPoint x="535" y="340" as="sourcePoint" />
            <mxPoint x="534.5" y="180" as="targetPoint" />
          </mxGeometry>
        </mxCell>
        <mxCell id="HCJzrl4x2OYuLPzcvMn--85" value=":Supplier&lt;br&gt;" style="rounded=0;whiteSpace=wrap;html=1;shadow=0;strokeWidth=1;" vertex="1" parent="1">
          <mxGeometry x="680" y="110" width="120" height="60" as="geometry" />
        </mxCell>
        <mxCell id="HCJzrl4x2OYuLPzcvMn--115" value="View Location()" style="verticalAlign=bottom;endArrow=block;entryX=0;entryY=0;shadow=0;strokeWidth=1;exitX=1.04;exitY=0.005;exitDx=0;exitDy=0;exitPerimeter=0;" edge="1" source="HCJzrl4x2OYuLPzcvMn--128" parent="1">
          <mxGeometry relative="1" as="geometry">
            <mxPoint x="230" y="630" as="sourcePoint" />
            <mxPoint x="410" y="630.0000000000001" as="targetPoint" />
            <Array as="points" />
          </mxGeometry>
        </mxCell>
        <mxCell id="HCJzrl4x2OYuLPzcvMn--116" value="Coordinator&lt;br&gt;" style="shape=umlActor;verticalLabelPosition=bottom;verticalAlign=top;html=1;outlineConnect=0;" vertex="1" parent="1">
          <mxGeometry x="200" y="490" width="30" height="60" as="geometry" />
        </mxCell>
        <mxCell id="HCJzrl4x2OYuLPzcvMn--117" value="" style="endArrow=none;dashed=1;html=1;" edge="1" source="HCJzrl4x2OYuLPzcvMn--128" parent="1">
          <mxGeometry width="50" height="50" relative="1" as="geometry">
            <mxPoint x="214.5" y="790" as="sourcePoint" />
            <mxPoint x="214.5" y="580" as="targetPoint" />
          </mxGeometry>
        </mxCell>
        <mxCell id="HCJzrl4x2OYuLPzcvMn--118" value="Supply Location" style="ellipse;whiteSpace=wrap;html=1;aspect=fixed;rounded=0;shadow=0;strokeWidth=1;" vertex="1" parent="1">
          <mxGeometry x="380" y="490" width="80" height="80" as="geometry" />
        </mxCell>
        <mxCell id="HCJzrl4x2OYuLPzcvMn--119" value="" style="endArrow=none;dashed=1;html=1;" edge="1" source="HCJzrl4x2OYuLPzcvMn--120" parent="1">
          <mxGeometry width="50" height="50" relative="1" as="geometry">
            <mxPoint x="420" y="770" as="sourcePoint" />
            <mxPoint x="420" y="580" as="targetPoint" />
            <Array as="points">
              <mxPoint x="420" y="590" />
            </Array>
          </mxGeometry>
        </mxCell>
        <mxCell id="HCJzrl4x2OYuLPzcvMn--120" value="" style="points=[];perimeter=orthogonalPerimeter;rounded=0;shadow=0;strokeWidth=1;" vertex="1" parent="1">
          <mxGeometry x="410" y="630" width="20" height="50" as="geometry" />
        </mxCell>
        <mxCell id="HCJzrl4x2OYuLPzcvMn--121" value="" style="endArrow=none;dashed=1;html=1;" edge="1" target="HCJzrl4x2OYuLPzcvMn--120" parent="1">
          <mxGeometry width="50" height="50" relative="1" as="geometry">
            <mxPoint x="420" y="710" as="sourcePoint" />
            <mxPoint x="420" y="580" as="targetPoint" />
          </mxGeometry>
        </mxCell>
        <mxCell id="HCJzrl4x2OYuLPzcvMn--124" value="Location Report Created()" style="edgeStyle=orthogonalEdgeStyle;rounded=0;orthogonalLoop=1;jettySize=auto;html=1;" edge="1" source="HCJzrl4x2OYuLPzcvMn--120" target="HCJzrl4x2OYuLPzcvMn--128" parent="1">
          <mxGeometry relative="1" as="geometry">
            <mxPoint x="410" y="670" as="sourcePoint" />
            <mxPoint x="220" y="660" as="targetPoint" />
            <Array as="points">
              <mxPoint x="330" y="670" />
              <mxPoint x="330" y="670" />
            </Array>
          </mxGeometry>
        </mxCell>
        <mxCell id="HCJzrl4x2OYuLPzcvMn--128" value="" style="points=[];perimeter=orthogonalPerimeter;rounded=0;shadow=0;strokeWidth=1;" vertex="1" parent="1">
          <mxGeometry x="205" y="630" width="20" height="70" as="geometry" />
        </mxCell>
        <mxCell id="HCJzrl4x2OYuLPzcvMn--129" value="" style="endArrow=none;dashed=1;html=1;" edge="1" target="HCJzrl4x2OYuLPzcvMn--128" parent="1">
          <mxGeometry width="50" height="50" relative="1" as="geometry">
            <mxPoint x="215" y="720" as="sourcePoint" />
            <mxPoint x="214.5" y="580" as="targetPoint" />
          </mxGeometry>
        </mxCell>
        <mxCell id="HCJzrl4x2OYuLPzcvMn--122" value="" style="points=[];perimeter=orthogonalPerimeter;rounded=0;shadow=0;strokeWidth=1;" vertex="1" parent="1">
          <mxGeometry x="210" y="670" width="20" height="20" as="geometry" />
        </mxCell>
        <mxCell id="HCJzrl4x2OYuLPzcvMn--133" value="AddLocation()" style="verticalAlign=bottom;endArrow=block;entryX=0;entryY=0;shadow=0;strokeWidth=1;exitX=1.04;exitY=0.005;exitDx=0;exitDy=0;exitPerimeter=0;" edge="1" source="HCJzrl4x2OYuLPzcvMn--146" parent="1">
          <mxGeometry relative="1" as="geometry">
            <mxPoint x="240" y="900" as="sourcePoint" />
            <mxPoint x="420" y="900.0000000000001" as="targetPoint" />
            <Array as="points" />
          </mxGeometry>
        </mxCell>
        <mxCell id="HCJzrl4x2OYuLPzcvMn--134" value="Coordinator" style="shape=umlActor;verticalLabelPosition=bottom;verticalAlign=top;html=1;outlineConnect=0;" vertex="1" parent="1">
          <mxGeometry x="210" y="760" width="30" height="60" as="geometry" />
        </mxCell>
        <mxCell id="HCJzrl4x2OYuLPzcvMn--135" value="" style="endArrow=none;dashed=1;html=1;" edge="1" source="HCJzrl4x2OYuLPzcvMn--146" parent="1">
          <mxGeometry width="50" height="50" relative="1" as="geometry">
            <mxPoint x="224.5" y="1060" as="sourcePoint" />
            <mxPoint x="224.5" y="850" as="targetPoint" />
          </mxGeometry>
        </mxCell>
        <mxCell id="HCJzrl4x2OYuLPzcvMn--136" value="Supply Location" style="ellipse;whiteSpace=wrap;html=1;aspect=fixed;rounded=0;shadow=0;strokeWidth=1;" vertex="1" parent="1">
          <mxGeometry x="390" y="760" width="80" height="80" as="geometry" />
        </mxCell>
        <mxCell id="HCJzrl4x2OYuLPzcvMn--137" value="" style="endArrow=none;dashed=1;html=1;" edge="1" source="HCJzrl4x2OYuLPzcvMn--138" parent="1">
          <mxGeometry width="50" height="50" relative="1" as="geometry">
            <mxPoint x="430" y="1040" as="sourcePoint" />
            <mxPoint x="430" y="850" as="targetPoint" />
            <Array as="points">
              <mxPoint x="430" y="860" />
            </Array>
          </mxGeometry>
        </mxCell>
        <mxCell id="HCJzrl4x2OYuLPzcvMn--138" value="" style="points=[];perimeter=orthogonalPerimeter;rounded=0;shadow=0;strokeWidth=1;" vertex="1" parent="1">
          <mxGeometry x="420" y="900" width="20" height="50" as="geometry" />
        </mxCell>
        <mxCell id="HCJzrl4x2OYuLPzcvMn--139" value="" style="endArrow=none;dashed=1;html=1;" edge="1" source="HCJzrl4x2OYuLPzcvMn--143" target="HCJzrl4x2OYuLPzcvMn--138" parent="1">
          <mxGeometry width="50" height="50" relative="1" as="geometry">
            <mxPoint x="430" y="1070" as="sourcePoint" />
            <mxPoint x="430" y="850" as="targetPoint" />
          </mxGeometry>
        </mxCell>
        <mxCell id="HCJzrl4x2OYuLPzcvMn--140" value="" style="points=[];perimeter=orthogonalPerimeter;rounded=0;shadow=0;strokeWidth=1;" vertex="1" parent="1">
          <mxGeometry x="230" y="940" width="20" height="20" as="geometry" />
        </mxCell>
        <mxCell id="HCJzrl4x2OYuLPzcvMn--141" style="edgeStyle=orthogonalEdgeStyle;rounded=0;orthogonalLoop=1;jettySize=auto;html=1;" edge="1" source="HCJzrl4x2OYuLPzcvMn--146" parent="1">
          <mxGeometry relative="1" as="geometry">
            <mxPoint x="390" y="970" as="sourcePoint" />
            <mxPoint x="230" y="930" as="targetPoint" />
            <Array as="points" />
          </mxGeometry>
        </mxCell>
        <mxCell id="HCJzrl4x2OYuLPzcvMn--142" value="Location Form()" style="edgeStyle=orthogonalEdgeStyle;rounded=0;orthogonalLoop=1;jettySize=auto;html=1;" edge="1" source="HCJzrl4x2OYuLPzcvMn--138" target="HCJzrl4x2OYuLPzcvMn--146" parent="1">
          <mxGeometry relative="1" as="geometry">
            <mxPoint x="420" y="940" as="sourcePoint" />
            <mxPoint x="230" y="930" as="targetPoint" />
            <Array as="points">
              <mxPoint x="340" y="940" />
              <mxPoint x="340" y="940" />
            </Array>
          </mxGeometry>
        </mxCell>
        <mxCell id="HCJzrl4x2OYuLPzcvMn--143" value="" style="points=[];perimeter=orthogonalPerimeter;rounded=0;shadow=0;strokeWidth=1;" vertex="1" parent="1">
          <mxGeometry x="420" y="980" width="20" height="60" as="geometry" />
        </mxCell>
        <mxCell id="HCJzrl4x2OYuLPzcvMn--144" value="" style="endArrow=none;dashed=1;html=1;" edge="1" target="HCJzrl4x2OYuLPzcvMn--143" parent="1">
          <mxGeometry width="50" height="50" relative="1" as="geometry">
            <mxPoint x="430" y="1100" as="sourcePoint" />
            <mxPoint x="430" y="950" as="targetPoint" />
          </mxGeometry>
        </mxCell>
        <mxCell id="HCJzrl4x2OYuLPzcvMn--145" value="Add Location Form()" style="endArrow=classic;html=1;" edge="1" target="HCJzrl4x2OYuLPzcvMn--143" parent="1">
          <mxGeometry width="50" height="50" relative="1" as="geometry">
            <mxPoint x="235" y="1000" as="sourcePoint" />
            <mxPoint x="285" y="950" as="targetPoint" />
          </mxGeometry>
        </mxCell>
        <mxCell id="HCJzrl4x2OYuLPzcvMn--146" value="" style="points=[];perimeter=orthogonalPerimeter;rounded=0;shadow=0;strokeWidth=1;" vertex="1" parent="1">
          <mxGeometry x="215" y="900" width="20" height="170" as="geometry" />
        </mxCell>
        <mxCell id="HCJzrl4x2OYuLPzcvMn--147" value="" style="endArrow=none;dashed=1;html=1;" edge="1" target="HCJzrl4x2OYuLPzcvMn--146" parent="1">
          <mxGeometry width="50" height="50" relative="1" as="geometry">
            <mxPoint x="225" y="1100" as="sourcePoint" />
            <mxPoint x="224.5" y="850" as="targetPoint" />
          </mxGeometry>
        </mxCell>
        <mxCell id="HCJzrl4x2OYuLPzcvMn--148" value="" style="points=[];perimeter=orthogonalPerimeter;rounded=0;shadow=0;strokeWidth=1;" vertex="1" parent="1">
          <mxGeometry x="230" y="1040" width="20" height="20" as="geometry" />
        </mxCell>
        <mxCell id="HCJzrl4x2OYuLPzcvMn--149" value="Location Created()" style="endArrow=classic;html=1;" edge="1" parent="1">
          <mxGeometry width="50" height="50" relative="1" as="geometry">
            <mxPoint x="425" y="1037" as="sourcePoint" />
            <mxPoint x="234" y="1037" as="targetPoint" />
          </mxGeometry>
        </mxCell>
        <mxCell id="HCJzrl4x2OYuLPzcvMn--150" value="EditLocation()" style="verticalAlign=bottom;endArrow=block;entryX=0;entryY=0;shadow=0;strokeWidth=1;exitX=1.04;exitY=0.005;exitDx=0;exitDy=0;exitPerimeter=0;" edge="1" source="HCJzrl4x2OYuLPzcvMn--163" parent="1">
          <mxGeometry relative="1" as="geometry">
            <mxPoint x="590" y="920" as="sourcePoint" />
            <mxPoint x="770" y="920" as="targetPoint" />
            <Array as="points" />
          </mxGeometry>
        </mxCell>
        <mxCell id="HCJzrl4x2OYuLPzcvMn--151" value="Coordinator" style="shape=umlActor;verticalLabelPosition=bottom;verticalAlign=top;html=1;outlineConnect=0;" vertex="1" parent="1">
          <mxGeometry x="560" y="780" width="30" height="60" as="geometry" />
        </mxCell>
        <mxCell id="HCJzrl4x2OYuLPzcvMn--152" value="" style="endArrow=none;dashed=1;html=1;" edge="1" source="HCJzrl4x2OYuLPzcvMn--163" parent="1">
          <mxGeometry width="50" height="50" relative="1" as="geometry">
            <mxPoint x="574.5" y="1080" as="sourcePoint" />
            <mxPoint x="574.5" y="870" as="targetPoint" />
          </mxGeometry>
        </mxCell>
        <mxCell id="HCJzrl4x2OYuLPzcvMn--153" value="Supply Location" style="ellipse;whiteSpace=wrap;html=1;aspect=fixed;rounded=0;shadow=0;strokeWidth=1;" vertex="1" parent="1">
          <mxGeometry x="740" y="780" width="80" height="80" as="geometry" />
        </mxCell>
        <mxCell id="HCJzrl4x2OYuLPzcvMn--154" value="" style="endArrow=none;dashed=1;html=1;" edge="1" source="HCJzrl4x2OYuLPzcvMn--155" parent="1">
          <mxGeometry width="50" height="50" relative="1" as="geometry">
            <mxPoint x="780" y="1060" as="sourcePoint" />
            <mxPoint x="780" y="870" as="targetPoint" />
            <Array as="points">
              <mxPoint x="780" y="880" />
            </Array>
          </mxGeometry>
        </mxCell>
        <mxCell id="HCJzrl4x2OYuLPzcvMn--155" value="" style="points=[];perimeter=orthogonalPerimeter;rounded=0;shadow=0;strokeWidth=1;" vertex="1" parent="1">
          <mxGeometry x="770" y="920" width="20" height="50" as="geometry" />
        </mxCell>
        <mxCell id="HCJzrl4x2OYuLPzcvMn--156" value="" style="endArrow=none;dashed=1;html=1;" edge="1" source="HCJzrl4x2OYuLPzcvMn--160" target="HCJzrl4x2OYuLPzcvMn--155" parent="1">
          <mxGeometry width="50" height="50" relative="1" as="geometry">
            <mxPoint x="780" y="1090" as="sourcePoint" />
            <mxPoint x="780" y="870" as="targetPoint" />
          </mxGeometry>
        </mxCell>
        <mxCell id="HCJzrl4x2OYuLPzcvMn--157" value="" style="points=[];perimeter=orthogonalPerimeter;rounded=0;shadow=0;strokeWidth=1;" vertex="1" parent="1">
          <mxGeometry x="580" y="960" width="20" height="20" as="geometry" />
        </mxCell>
        <mxCell id="HCJzrl4x2OYuLPzcvMn--158" style="edgeStyle=orthogonalEdgeStyle;rounded=0;orthogonalLoop=1;jettySize=auto;html=1;" edge="1" source="HCJzrl4x2OYuLPzcvMn--163" parent="1">
          <mxGeometry relative="1" as="geometry">
            <mxPoint x="740" y="990" as="sourcePoint" />
            <mxPoint x="580" y="950" as="targetPoint" />
            <Array as="points" />
          </mxGeometry>
        </mxCell>
        <mxCell id="HCJzrl4x2OYuLPzcvMn--159" value="Location Form()" style="edgeStyle=orthogonalEdgeStyle;rounded=0;orthogonalLoop=1;jettySize=auto;html=1;" edge="1" source="HCJzrl4x2OYuLPzcvMn--155" target="HCJzrl4x2OYuLPzcvMn--163" parent="1">
          <mxGeometry relative="1" as="geometry">
            <mxPoint x="770" y="960" as="sourcePoint" />
            <mxPoint x="580" y="950" as="targetPoint" />
            <Array as="points">
              <mxPoint x="690" y="960" />
              <mxPoint x="690" y="960" />
            </Array>
          </mxGeometry>
        </mxCell>
        <mxCell id="HCJzrl4x2OYuLPzcvMn--160" value="" style="points=[];perimeter=orthogonalPerimeter;rounded=0;shadow=0;strokeWidth=1;" vertex="1" parent="1">
          <mxGeometry x="770" y="1000" width="20" height="60" as="geometry" />
        </mxCell>
        <mxCell id="HCJzrl4x2OYuLPzcvMn--161" value="" style="endArrow=none;dashed=1;html=1;" edge="1" target="HCJzrl4x2OYuLPzcvMn--160" parent="1">
          <mxGeometry width="50" height="50" relative="1" as="geometry">
            <mxPoint x="780" y="1120" as="sourcePoint" />
            <mxPoint x="780" y="970" as="targetPoint" />
          </mxGeometry>
        </mxCell>
        <mxCell id="HCJzrl4x2OYuLPzcvMn--162" value="Update Location Form()" style="endArrow=classic;html=1;" edge="1" target="HCJzrl4x2OYuLPzcvMn--160" parent="1">
          <mxGeometry width="50" height="50" relative="1" as="geometry">
            <mxPoint x="585" y="1020" as="sourcePoint" />
            <mxPoint x="635" y="970" as="targetPoint" />
          </mxGeometry>
        </mxCell>
        <mxCell id="HCJzrl4x2OYuLPzcvMn--163" value="" style="points=[];perimeter=orthogonalPerimeter;rounded=0;shadow=0;strokeWidth=1;" vertex="1" parent="1">
          <mxGeometry x="565" y="920" width="20" height="170" as="geometry" />
        </mxCell>
        <mxCell id="HCJzrl4x2OYuLPzcvMn--164" value="" style="endArrow=none;dashed=1;html=1;" edge="1" target="HCJzrl4x2OYuLPzcvMn--163" parent="1">
          <mxGeometry width="50" height="50" relative="1" as="geometry">
            <mxPoint x="575" y="1120" as="sourcePoint" />
            <mxPoint x="574.5" y="870" as="targetPoint" />
          </mxGeometry>
        </mxCell>
        <mxCell id="HCJzrl4x2OYuLPzcvMn--165" value="" style="points=[];perimeter=orthogonalPerimeter;rounded=0;shadow=0;strokeWidth=1;" vertex="1" parent="1">
          <mxGeometry x="580" y="1060" width="20" height="20" as="geometry" />
        </mxCell>
        <mxCell id="HCJzrl4x2OYuLPzcvMn--166" value="Location Updated()" style="endArrow=classic;html=1;" edge="1" parent="1">
          <mxGeometry width="50" height="50" relative="1" as="geometry">
            <mxPoint x="775" y="1057" as="sourcePoint" />
            <mxPoint x="584" y="1057" as="targetPoint" />
          </mxGeometry>
        </mxCell>
        <mxCell id="HCJzrl4x2OYuLPzcvMn--167" value="DeleteLocation()" style="verticalAlign=bottom;endArrow=block;entryX=0;entryY=0;shadow=0;strokeWidth=1;exitX=1.04;exitY=0.005;exitDx=0;exitDy=0;exitPerimeter=0;" edge="1" source="HCJzrl4x2OYuLPzcvMn--175" parent="1">
          <mxGeometry relative="1" as="geometry">
            <mxPoint x="630" y="640" as="sourcePoint" />
            <mxPoint x="810" y="640" as="targetPoint" />
            <Array as="points" />
          </mxGeometry>
        </mxCell>
        <mxCell id="HCJzrl4x2OYuLPzcvMn--168" value="Coordinator&lt;br&gt;" style="shape=umlActor;verticalLabelPosition=bottom;verticalAlign=top;html=1;outlineConnect=0;" vertex="1" parent="1">
          <mxGeometry x="600" y="500" width="30" height="60" as="geometry" />
        </mxCell>
        <mxCell id="HCJzrl4x2OYuLPzcvMn--169" value="" style="endArrow=none;dashed=1;html=1;" edge="1" source="HCJzrl4x2OYuLPzcvMn--175" parent="1">
          <mxGeometry width="50" height="50" relative="1" as="geometry">
            <mxPoint x="614.5" y="800" as="sourcePoint" />
            <mxPoint x="614.5" y="590" as="targetPoint" />
          </mxGeometry>
        </mxCell>
        <mxCell id="HCJzrl4x2OYuLPzcvMn--170" value="Supply Location" style="ellipse;whiteSpace=wrap;html=1;aspect=fixed;rounded=0;shadow=0;strokeWidth=1;" vertex="1" parent="1">
          <mxGeometry x="780" y="500" width="80" height="80" as="geometry" />
        </mxCell>
        <mxCell id="HCJzrl4x2OYuLPzcvMn--171" value="" style="endArrow=none;dashed=1;html=1;" edge="1" source="HCJzrl4x2OYuLPzcvMn--172" parent="1">
          <mxGeometry width="50" height="50" relative="1" as="geometry">
            <mxPoint x="820" y="780" as="sourcePoint" />
            <mxPoint x="820" y="590" as="targetPoint" />
            <Array as="points">
              <mxPoint x="820" y="600" />
            </Array>
          </mxGeometry>
        </mxCell>
        <mxCell id="HCJzrl4x2OYuLPzcvMn--172" value="" style="points=[];perimeter=orthogonalPerimeter;rounded=0;shadow=0;strokeWidth=1;" vertex="1" parent="1">
          <mxGeometry x="810" y="640" width="20" height="50" as="geometry" />
        </mxCell>
        <mxCell id="HCJzrl4x2OYuLPzcvMn--173" value="" style="endArrow=none;dashed=1;html=1;" edge="1" target="HCJzrl4x2OYuLPzcvMn--172" parent="1">
          <mxGeometry width="50" height="50" relative="1" as="geometry">
            <mxPoint x="820" y="720" as="sourcePoint" />
            <mxPoint x="820" y="590" as="targetPoint" />
          </mxGeometry>
        </mxCell>
        <mxCell id="HCJzrl4x2OYuLPzcvMn--174" value="Location Removed()" style="edgeStyle=orthogonalEdgeStyle;rounded=0;orthogonalLoop=1;jettySize=auto;html=1;" edge="1" source="HCJzrl4x2OYuLPzcvMn--172" target="HCJzrl4x2OYuLPzcvMn--175" parent="1">
          <mxGeometry relative="1" as="geometry">
            <mxPoint x="810" y="680" as="sourcePoint" />
            <mxPoint x="620" y="670" as="targetPoint" />
            <Array as="points">
              <mxPoint x="730" y="680" />
              <mxPoint x="730" y="680" />
            </Array>
          </mxGeometry>
        </mxCell>
        <mxCell id="HCJzrl4x2OYuLPzcvMn--175" value="" style="points=[];perimeter=orthogonalPerimeter;rounded=0;shadow=0;strokeWidth=1;" vertex="1" parent="1">
          <mxGeometry x="605" y="640" width="20" height="70" as="geometry" />
        </mxCell>
        <mxCell id="HCJzrl4x2OYuLPzcvMn--176" value="" style="endArrow=none;dashed=1;html=1;" edge="1" target="HCJzrl4x2OYuLPzcvMn--175" parent="1">
          <mxGeometry width="50" height="50" relative="1" as="geometry">
            <mxPoint x="615" y="730" as="sourcePoint" />
            <mxPoint x="614.5" y="590" as="targetPoint" />
          </mxGeometry>
        </mxCell>
        <mxCell id="HCJzrl4x2OYuLPzcvMn--177" value="" style="points=[];perimeter=orthogonalPerimeter;rounded=0;shadow=0;strokeWidth=1;" vertex="1" parent="1">
          <mxGeometry x="610" y="680" width="20" height="20" as="geometry" />
        </mxCell>
      </root>
    </mxGraphModel>
  </diagram>
</mxfile>
